<?xml version="1.0" encoding="UTF-8"?>
<svg width="60pt" height="60pt" version="1.1" viewBox="0 0 752 752" xmlns="http://www.w3.org/2000/svg">
 <path d="m255.98 376.13c0.003907-0.67578 0.003907-1.3555 0.070313-2.0312 0.25391-5.0039 1.7383-9.7734 4.5781-13.875 1.4922-2.543 3.2148-5 5.4258-7.207l179.81-179.8c12.473-12.473 31.535-13.641 42.59-2.5898 11.043 11.047 9.8867 30.109-2.6016 42.59l-162.93 162.92 162.93 162.93c12.488 12.484 13.645 31.539 2.6016 42.59-11.055 11.047-30.105 9.8867-42.59-2.582l-179.81-179.81c-2.2109-2.2109-3.9336-4.6641-5.4258-7.2031-2.8359-4.1016-4.3203-8.875-4.5742-13.871-0.070312-0.69141-0.070312-1.3594-0.074219-2.0469z"/>
</svg>
